<svg xmlns="http://www.w3.org/2000/svg" xmlns:xlink="http://www.w3.org/1999/xlink" viewBox="0,0,256,256" width="96px" height="96px"><g transform="translate(-1.28,-1.28) scale(1.01,1.01)"><g fill-opacity="0" fill="#dddddd" fill-rule="nonzero" stroke="none" stroke-width="1" stroke-linecap="butt" stroke-linejoin="miter" stroke-miterlimit="10" stroke-dasharray="" stroke-dashoffset="0" font-family="none" font-weight="none" font-size="none" text-anchor="none" style="mix-blend-mode: normal"><path d="M1.26733,254.73267v-253.46535h253.46535v253.46535z" id="bgRectangle"></path></g><g fill="none" fill-rule="none" stroke="none" stroke-width="1" stroke-linecap="butt" stroke-linejoin="miter" stroke-miterlimit="10" stroke-dasharray="" stroke-dashoffset="0" font-family="none" font-weight="none" font-size="none" text-anchor="none" style="mix-blend-mode: normal"><g transform="translate(33.98659,-12.8335) rotate(18) scale(5.33333,5.33333)"><path d="M12.365,27.705l-2.345,-0.367l1.392,-1.435c0.611,-0.204 1.713,-0.525 2.197,-0.793l3.411,0.108l-2.485,1.771c-0.094,0.001 -1.753,0.618 -2.17,0.716z" fill="#23d6ef" fill-rule="evenodd"></path><path d="M15.594,35.99l-2.575,-0.652l1.781,-1.571c0.284,-0.053 1.469,-0.397 1.693,-0.503l2.525,0.033l-1.732,2.217c-0.015,0.019 -1.509,0.433 -1.692,0.476z" fill="#23d6ef" fill-rule="evenodd"></path><path d="M4.942,11.529l-1.668,1.795l-0.087,-2.076c0.057,-1.003 1.676,-5.568 2.217,-6.188c0.408,-0.47 0.796,-1.107 1.224,-1.59c1.451,-1.633 4.055,-2.408 6.155,-2.616c1.623,-0.16 5.449,0.757 7.083,1.192c1.664,0.445 1.957,0.92 3.143,1.723l-2.584,6.055l-11.15,3.921c-0.129,-1.668 -0.585,-3.033 -2.481,-3.111c-0.626,-0.024 -1.438,0.784 -1.852,0.895z" fill="#23d6ef" fill-rule="evenodd"></path><path d="M16.226,39.607l-3.899,-2.968l-0.867,4.325c0.011,0.125 0.672,1.909 0.728,1.985c1.711,0 3.333,-0.4 4.7,-1.257c-0.329,-0.123 -0.382,-1.819 -0.662,-2.085z" fill="#bfbd00" fill-rule="evenodd"></path><path d="M10.367,41.261c-0.925,-2.657 -1.972,-7.717 -3.308,-9.927c-0.609,-1.005 -1.239,-5.456 -1.423,-6.916c-0.105,-0.831 0.24,-3.651 0.925,-3.64c3.541,0.049 7.432,11.575 8.671,14.924c0.149,0.4 1.215,3.22 1.291,3.311c-0.237,-0.012 -1.432,0.651 -1.92,0.793c-0.741,0.215 -3.812,1.104 -4.236,1.455z" fill="#23d6ef" fill-rule="evenodd"></path><path d="M28.338,9.095c2.907,0.885 4.267,4.297 6.255,5.56c3.605,2.292 8.089,-1.949 9.399,-1.952c2.123,-0.004 3.947,4.433 3.177,5.428c-0.052,0.064 -0.259,0.739 -0.465,0.76c-1.769,0.191 -4.651,-0.2 -6.716,-0.265c-0.573,-0.019 -1.108,0.383 -1.624,0.531c-3.676,1.047 -2.773,6.712 -0.991,8.669c0.129,0.143 0.932,1.968 1.025,2.252c0.012,0.117 0.265,1.287 0.264,1.289c-0.34,0.732 -3.9,1.544 -4.865,1.753c-2.972,0.649 -7.881,2.239 -10.655,3.441c-0.785,0.34 -2.489,1.685 -3.508,1.392c-2.412,-0.699 -2.892,-6.515 -3.54,-8.971c-0.383,-1.44 -1.487,-2.305 -1.888,-3.473c-0.416,-1.217 -0.932,-2.388 -1.323,-3.441l-0.064,-7.971l11.52,-6.36z" fill="#cbdb2d" fill-rule="nonzero"></path><path d="M16.986,31.963l-0.297,-0.085c-0.221,-1.115 -0.4,-2.156 -0.595,-2.895c-0.031,-0.112 -0.065,-0.221 -0.103,-0.327l0.333,-0.235c2.9,-0.152 7.691,-1.897 10.656,-2.78c2.279,-0.677 6.263,-2.209 8.439,-2.349l0.404,0.132c0.033,1.043 0.288,2.104 0.672,2.985l-0.415,0.092c-2.788,0.215 -6.799,2.424 -9.563,2.879c-0.975,0.161 -4.024,0.827 -4.833,1.125c-1.426,0.53 -3.226,1.273 -4.698,1.458z" fill="#23d6ef" fill-rule="evenodd"></path><path d="M17.914,35.205l-0.421,-0.117c-0.311,-0.916 -0.547,-1.944 -0.748,-2.931l0.241,-0.193c1.472,-0.185 3.272,-0.928 4.699,-1.457c0.809,-0.299 3.859,-0.964 4.833,-1.125c2.764,-0.455 6.775,-2.664 9.563,-2.879l0.467,0.024c0.236,0.515 0.517,0.963 0.825,1.3c0.049,0.056 0.2,0.363 0.371,0.735l-0.404,0.257c-0.083,0.097 -4.101,1.508 -4.6,1.656c-1.972,0.588 -4.317,0.861 -6.288,1.655c-2.874,1.155 -5.733,2.183 -8.538,3.075z" fill="#d6e5e5" fill-rule="evenodd"></path><path d="M19.634,37.954c-0.885,-0.256 -1.509,-1.2 -1.979,-2.413l0.259,-0.336c2.805,-0.892 5.664,-1.92 8.537,-3.076c1.971,-0.793 4.316,-1.067 6.288,-1.655c0.499,-0.148 4.517,-1.559 4.6,-1.656l0.524,0.005c0.24,0.532 0.485,1.107 0.535,1.255c0.012,0.117 0.265,1.287 0.264,1.289c-0.34,0.732 -3.9,1.544 -4.865,1.753c-2.972,0.649 -7.881,2.239 -10.655,3.441c-0.785,0.341 -2.489,1.686 -3.508,1.393z" fill="#23d6ef" fill-rule="evenodd"></path><path d="M8.777,13.783c-0.064,-0.817 -0.204,-1.467 -0.499,-1.916c-0.267,-0.407 -0.696,-0.7 -1.504,-0.733c-0.132,-0.005 -0.363,0.093 -0.713,0.317c-0.293,0.188 -0.532,0.363 -0.759,0.473l-0.069,0.027l-1.593,1.713c-0.301,0.324 -0.847,0.123 -0.865,-0.32l-0.087,-2.076v-0.049c0.035,-0.593 0.484,-2.056 0.956,-3.377c0.455,-1.277 1.026,-2.701 1.383,-3.111c0.336,-0.387 0.801,-1.112 1.227,-1.592c1.576,-1.776 4.336,-2.569 6.48,-2.783c1.74,-0.171 5.663,0.781 7.26,1.207c1.772,0.475 2.175,1.033 3.295,1.792c0.197,0.135 0.273,0.391 0.179,0.611l-2.584,6.055c-0.055,0.128 -0.161,0.228 -0.293,0.275l-11.151,3.921c-0.309,0.109 -0.638,-0.106 -0.663,-0.434zM9.701,13.066l10.349,-3.64l2.339,-5.479l-0.085,-0.06c-0.895,-0.648 -1.205,-0.993 -2.567,-1.357c-1.685,-0.448 -5.404,-1.325 -6.905,-1.177c-2.056,0.203 -4.504,0.959 -5.829,2.449c-0.419,0.471 -0.768,1.064 -1.223,1.587c-0.177,0.204 -0.661,1.29 -1.196,2.789c-0.429,1.204 -0.779,2.363 -0.875,2.905l-0.023,0.181l0.035,0.843l0.853,-0.919c0.064,-0.068 0.145,-0.117 0.237,-0.141c0.024,-0.008 0.096,-0.04 0.243,-0.133c0.181,-0.115 0.241,-0.161 0.467,-0.307c0.315,-0.2 0.8,-0.491 1.291,-0.472c1.729,0.071 2.456,1.088 2.767,2.311z" fill="#010101" fill-rule="evenodd"></path><path d="M3.49,11.238c0.13,-0.028 0.29,-0.048 0.492,-0.057c1.36,-0.059 1.964,2.032 1.787,3.343c-0.177,1.309 -1.476,2.193 -2.881,1.919c-2.141,-0.417 -2.804,-2.443 -1.687,-4.203c0.175,-0.273 1.188,-0.716 1.491,-0.761c0.26,-0.038 0.416,-0.166 0.798,-0.241z" fill="#d6e5e5" fill-rule="evenodd"></path><path d="M2.791,16.934c-2.512,-0.489 -3.301,-2.932 -2.013,-4.963c0.029,-0.045 0.06,-0.084 0.089,-0.116c0.203,-0.223 0.592,-0.428 0.869,-0.559c0.297,-0.14 0.655,-0.279 0.88,-0.312c0.181,-0.027 0.356,-0.155 0.772,-0.236c0.16,-0.035 0.348,-0.056 0.571,-0.067c0.985,-0.043 1.612,0.691 1.949,1.456c0.336,0.764 0.456,1.708 0.355,2.453c-0.22,1.625 -1.815,2.668 -3.472,2.344zM5.272,14.457c0.076,-0.565 -0.017,-1.323 -0.279,-1.916c-0.257,-0.585 -0.609,-0.876 -0.991,-0.86c-0.18,0.008 -0.312,0.027 -0.413,0.048c-0.333,0.065 -0.497,0.197 -0.827,0.245c-0.062,0.009 -0.303,0.088 -0.602,0.228c-0.231,0.108 -0.401,0.211 -0.492,0.276l-0.056,0.047l-0.152,0.266c-0.717,1.412 -0.132,2.84 1.521,3.16c1.154,0.226 2.157,-0.5 2.291,-1.494z" fill="#010101" fill-rule="evenodd"></path><path d="M19.494,38.435c-2.803,-0.812 -3.271,-6.997 -3.884,-9.324c-0.377,-1.417 -1.425,-2.121 -1.877,-3.439c-0.419,-1.224 -0.908,-2.324 -1.319,-3.429c-0.096,-0.259 0.036,-0.547 0.295,-0.643c0.259,-0.096 0.547,0.036 0.643,0.295c0.371,1.001 0.913,2.243 1.327,3.453c0.331,0.963 1.501,2.011 1.899,3.508c0.604,2.287 1.159,8.028 3.196,8.617c0.739,0.213 2.475,-1.069 3.169,-1.371c2.803,-1.215 7.744,-2.815 10.748,-3.471c1.372,-0.297 3.569,-0.88 4.305,-1.313l0.123,-0.099l-0.076,-0.364c-0.031,-0.148 -0.063,-0.301 -0.088,-0.428l-0.04,-0.212l-0.051,-0.135c-0.168,-0.416 -0.611,-1.415 -0.812,-1.811l-0.08,-0.144l-0.307,-0.389c-1.629,-2.36 -2.405,-7.932 1.56,-9.061c0.367,-0.105 1.068,-0.573 1.779,-0.549c1.895,0.06 4.237,0.363 5.952,0.313l0.533,-0.035l0.076,-0.143c0.039,-0.093 0.08,-0.204 0.164,-0.371l0.044,-0.067c0.163,-0.211 0.096,-1.272 -0.555,-2.556c-0.624,-1.232 -1.487,-2.068 -2.227,-2.067c-0.449,0.001 -1.973,1.052 -3.635,1.793c-1.769,0.789 -4.005,1.371 -6.033,0.081c-2.135,-1.356 -3.396,-4.671 -6.132,-5.504c-0.264,-0.08 -0.413,-0.36 -0.332,-0.624c0.08,-0.264 0.36,-0.413 0.624,-0.332c3.059,0.932 4.585,4.479 6.377,5.616c1.577,1.003 3.385,0.609 5.088,-0.151c1.657,-0.739 3.2,-1.877 4.041,-1.879c1.383,-0.003 2.493,1.377 3.12,2.613c0.524,1.036 0.939,2.435 0.631,3.289l-0.143,0.279l-0.029,0.076c-0.065,0.157 -0.216,0.501 -0.363,0.673c-0.061,0.072 -0.212,0.229 -0.451,0.253c-1.808,0.196 -4.821,-0.2 -6.785,-0.263c-0.419,-0.013 -0.888,0.345 -1.469,0.512c-3.081,0.877 -2.439,6.008 -0.695,7.937c0.213,0.323 0.971,2.055 1.067,2.347l0.021,0.1c0.02,0.141 0.233,1.125 0.259,1.257c0.021,0.12 0,0.24 -0.06,0.343l-0.06,0.096c-0.38,0.536 -1.571,0.945 -2.519,1.229c-1.045,0.313 -2.14,0.56 -2.612,0.663c-2.94,0.643 -7.817,2.221 -10.561,3.412c-0.698,0.307 -2.559,1.79 -3.846,1.419z" fill="#010101" fill-rule="evenodd"></path><path d="M45.713,19.235c0.019,0.011 -1.232,-0.667 -1.411,-0.769c-0.693,-0.4 -1.416,-1.36 -1.86,-2.336c-0.433,-0.951 -0.721,-2.184 -0.176,-3.061c0.145,-0.235 0.453,-0.307 0.688,-0.161c0.235,0.145 0.307,0.453 0.161,0.688c-0.257,0.415 -0.179,1.211 0.237,2.12c0.404,0.888 1.015,1.633 1.452,1.885c0.159,0.093 1.377,0.752 1.384,0.756c0.243,0.131 0.333,0.435 0.201,0.677c-0.129,0.243 -0.433,0.333 -0.676,0.201z" fill="#010101" fill-rule="evenodd"></path><path d="M6.062,26.83l-0.088,-0.049c-0.155,-0.971 -0.274,-1.85 -0.338,-2.363c-0.105,-0.831 0.24,-3.651 0.925,-3.64c1.387,0.02 2.827,1.799 4.14,4.159l-0.112,0.305c-1.213,0.457 -3.323,1.177 -4.527,1.588z" fill="#febf10" fill-rule="evenodd"></path><path d="M9.63,38.837l0.193,-0.039c1.803,-0.704 3.649,-1.335 5.4,-1.855l0.431,-0.127c0.36,0.948 0.82,2.139 0.869,2.196c-0.237,-0.012 -1.432,0.651 -1.92,0.793c-0.741,0.215 -3.812,1.104 -4.236,1.455c-0.237,-0.679 -0.482,-1.517 -0.737,-2.423z" fill="#d6e5e5" fill-rule="evenodd"></path><path d="M9.894,41.426c-0.947,-2.72 -1.975,-7.703 -3.263,-9.832c-0.368,-0.607 -0.695,-2.124 -0.936,-3.459c-0.259,-1.432 -0.463,-2.919 -0.556,-3.653c-0.056,-0.444 -0.004,-1.269 0.123,-2.023c0.113,-0.673 0.323,-1.585 0.765,-1.972c0.128,-0.112 0.312,-0.212 0.541,-0.208c2.183,0.029 4.168,3.403 5.643,6.509c1.583,3.332 2.876,7.08 3.489,8.74c0.151,0.404 1.012,2.681 1.221,3.165l0.031,0.067c0.176,0.3 -0.001,0.667 -0.313,0.74l-0.079,0.009c-0.085,0.017 -0.371,0.144 -0.772,0.332c-0.345,0.163 -0.772,0.364 -1.047,0.445c-0.367,0.105 -1.293,0.375 -2.189,0.661c-0.448,0.143 -0.883,0.289 -1.232,0.42c-0.377,0.141 -0.584,0.24 -0.645,0.287c-0.271,0.212 -0.668,0.095 -0.781,-0.228zM12.249,39.995c0.909,-0.291 1.849,-0.563 2.215,-0.669c0.179,-0.052 0.515,-0.208 0.9,-0.389c0.072,-0.033 0.156,-0.072 0.244,-0.113l0.244,-0.109l-0.047,-0.116c-0.364,-0.919 -0.961,-2.505 -1.041,-2.721c-0.625,-1.689 -1.897,-5.379 -3.455,-8.659c-0.78,-1.641 -1.619,-3.153 -2.468,-4.252c-0.768,-0.991 -1.46,-1.532 -2.044,-1.659l-0.153,-0.016c-0.107,0.161 -0.275,0.615 -0.395,1.333c-0.121,0.719 -0.155,1.432 -0.116,1.731c0.091,0.725 0.293,2.193 0.547,3.603c0.268,1.479 0.568,2.723 0.807,3.117c1.212,2.005 2.163,6.145 3,8.924l0.172,0.556l0.059,-0.024c0.457,-0.187 1.045,-0.381 1.531,-0.537z" fill="#010101" fill-rule="evenodd"></path><path d="M11.786,43.247c-0.035,-0.047 -0.056,-0.093 -0.059,-0.099c-0.068,-0.139 -0.256,-0.635 -0.391,-1.003c-0.08,-0.216 -0.159,-0.435 -0.221,-0.616c-0.059,-0.165 -0.113,-0.329 -0.136,-0.42c-0.003,-0.013 -0.013,-0.055 -0.017,-0.103c-0.024,-0.275 0.18,-0.517 0.456,-0.54c0.24,-0.02 0.456,0.133 0.521,0.357l0.016,0.068c0.023,0.071 0.056,0.171 0.104,0.308c0.06,0.173 0.137,0.387 0.216,0.6c0.079,0.213 0.157,0.424 0.224,0.595l0.017,0.045l0.279,-0.008c1.203,-0.072 2.336,-0.361 3.337,-0.881l0.077,-0.043l-0.02,-0.065c-0.013,-0.047 -0.025,-0.091 -0.035,-0.133c-0.047,-0.184 -0.085,-0.392 -0.121,-0.584c-0.037,-0.197 -0.071,-0.377 -0.108,-0.532c-0.031,-0.127 -0.056,-0.203 -0.077,-0.253l-0.033,-0.045c-0.135,-0.191 -0.12,-0.455 0.047,-0.631c0.191,-0.201 0.507,-0.209 0.707,-0.02c0.067,0.063 0.112,0.131 0.144,0.187c0.091,0.16 0.148,0.369 0.187,0.532c0.043,0.183 0.081,0.389 0.117,0.579c0.036,0.196 0.071,0.375 0.109,0.527c0.02,0.084 0.039,0.145 0.053,0.188l0.016,0.043l0.049,0.045c0.211,0.215 0.192,0.595 -0.091,0.772c-1.46,0.916 -3.179,1.333 -4.965,1.333c-0.159,0 -0.309,-0.075 -0.402,-0.203z" fill="#010101" fill-rule="evenodd"></path><path d="M22.522,42.391c-0.181,-0.017 -0.329,-0.032 -0.471,-0.035c-0.137,-0.003 -0.243,0.009 -0.325,0.032c-0.237,0.068 -0.488,-0.048 -0.593,-0.275c-0.049,-0.109 -0.087,-0.244 -0.116,-0.371c-0.033,-0.135 -0.064,-0.293 -0.095,-0.464c-0.059,-0.343 -0.116,-0.756 -0.165,-1.171c-0.048,-0.416 -0.088,-0.839 -0.115,-1.204c-0.025,-0.355 -0.04,-0.68 -0.029,-0.887c0.013,-0.276 0.249,-0.488 0.524,-0.475c0.276,0.013 0.488,0.249 0.475,0.524c-0.007,0.139 0.003,0.409 0.028,0.765c0.025,0.348 0.064,0.757 0.111,1.16c0.048,0.403 0.103,0.796 0.157,1.115c0.013,0.08 0.028,0.155 0.045,0.244l0.116,0.005c0.189,0.004 0.383,0.024 0.548,0.04c0.371,0.035 0.617,0.048 0.84,-0.019c0.264,-0.08 0.544,0.069 0.623,0.333c0.08,0.264 -0.069,0.544 -0.333,0.623c-0.225,0.069 -0.448,0.089 -0.652,0.091c-0.202,0.004 -0.401,-0.013 -0.573,-0.031z" fill="#010101" fill-rule="evenodd"></path><path d="M26.014,41.154c0.005,-0.2 -0.023,-0.573 -0.08,-1.053c-0.057,-0.471 -0.141,-1.021 -0.241,-1.565c-0.1,-0.547 -0.216,-1.08 -0.337,-1.519c-0.127,-0.465 -0.243,-0.756 -0.317,-0.868c-0.153,-0.229 -0.092,-0.54 0.137,-0.693c0.229,-0.153 0.54,-0.092 0.693,0.137c0.18,0.268 0.329,0.716 0.452,1.16c0.129,0.475 0.252,1.039 0.356,1.601c0.139,0.759 0.252,1.555 0.307,2.171l0.137,-0.025c0.112,-0.025 0.229,-0.052 0.345,-0.079c0.443,-0.101 0.919,-0.204 1.064,-0.227c0.003,-0.001 0.047,-0.007 0.099,-0.001c0.275,0.028 0.475,0.273 0.448,0.548c-0.021,0.207 -0.165,0.371 -0.351,0.428l-0.075,0.016c-0.06,0.011 -0.489,0.103 -0.965,0.211c-0.229,0.052 -0.46,0.105 -0.647,0.149c-0.203,0.049 -0.323,0.081 -0.347,0.089c-0.326,0.131 -0.687,-0.121 -0.678,-0.48z" fill="#010101" fill-rule="evenodd"></path><path d="M31.351,39.602l-0.057,-0.009c-0.24,-0.043 -0.413,-0.255 -0.409,-0.499c0,-0.059 -0.008,-0.159 -0.031,-0.309c-0.023,-0.145 -0.055,-0.32 -0.097,-0.517c-0.083,-0.396 -0.196,-0.865 -0.315,-1.356c-0.116,-0.487 -0.237,-0.992 -0.331,-1.449c-0.093,-0.448 -0.167,-0.88 -0.18,-1.212c-0.011,-0.275 0.204,-0.508 0.48,-0.519c0.275,-0.011 0.508,0.204 0.519,0.48c0.009,0.24 0.068,0.603 0.16,1.049c0.091,0.439 0.208,0.929 0.325,1.417c0.116,0.485 0.233,0.971 0.32,1.384c0.02,0.099 0.04,0.196 0.057,0.291l0.043,0.247l0.051,-0.004c0.129,-0.009 0.273,-0.023 0.419,-0.039c0.195,-0.021 0.385,-0.048 0.544,-0.076c0.144,-0.024 0.227,-0.045 0.267,-0.056l0.052,-0.033c0.143,-0.073 0.319,-0.076 0.471,0.007c0.241,0.133 0.329,0.437 0.196,0.68c-0.065,0.117 -0.16,0.18 -0.195,0.203c-0.048,0.029 -0.093,0.051 -0.128,0.064c-0.135,0.053 -0.327,0.093 -0.492,0.121c-0.184,0.032 -0.396,0.061 -0.604,0.084c-0.208,0.023 -0.417,0.041 -0.597,0.052c-0.166,0.007 -0.344,0.012 -0.468,-0.001z" fill="#010101" fill-rule="evenodd"></path><path d="M35.971,37.043c0,-0.017 -0.005,-0.08 -0.029,-0.204c-0.023,-0.115 -0.056,-0.257 -0.099,-0.423c-0.087,-0.329 -0.207,-0.727 -0.34,-1.124c-0.132,-0.397 -0.275,-0.788 -0.403,-1.104c-0.065,-0.157 -0.124,-0.292 -0.176,-0.397c-0.056,-0.113 -0.089,-0.167 -0.1,-0.18l-0.055,-0.071c-0.123,-0.197 -0.093,-0.46 0.083,-0.627c0.2,-0.189 0.517,-0.18 0.707,0.02l0.053,0.061c0.139,0.179 0.289,0.512 0.413,0.815c0.14,0.341 0.289,0.755 0.427,1.167c0.137,0.412 0.264,0.831 0.357,1.187c0.02,0.077 0.04,0.159 0.059,0.239l0.04,0.105c0.293,-0.052 0.647,-0.116 1.004,-0.181c0.355,-0.064 0.711,-0.131 0.993,-0.185c0.315,-0.059 0.46,-0.089 0.529,-0.108c0.197,-0.06 0.408,-0.005 0.541,0.153c0.176,0.212 0.148,0.528 -0.064,0.705c-0.055,0.044 -0.105,0.067 -0.116,0.072l-0.045,0.019l-0.049,0.015c-0.099,0.028 -0.351,0.077 -0.607,0.127c-0.288,0.055 -0.647,0.121 -1.003,0.187c-0.707,0.129 -1.423,0.256 -1.549,0.275c-0.289,0.045 -0.545,-0.167 -0.573,-0.443z" fill="#010101" fill-rule="evenodd"></path><path d="M9.26,17.823c-0.159,-0.325 -0.26,-0.6 -0.283,-0.787c-0.191,-1.557 0.301,-3.396 0.86,-4.699c0.829,-1.933 2.452,-1.911 3.475,-3.077c1.891,-2.161 9.043,-7.207 12.444,-4.599c0.953,0.732 1.175,1.252 1.852,2.183c2.748,3.777 -3.152,4.2 -5.327,4.799c-1.015,0.279 -2.384,1.297 -3.111,2.052c-1.625,1.687 -2.585,2.895 -4.005,4.667c-0.536,0.672 -0.771,2.007 -1.223,2.747c-0.281,0.46 -0.575,0.451 -1.16,0.628c-0.829,0.252 -2.786,-2.388 -3.522,-3.914z" fill="#d6e5e5" fill-rule="evenodd"></path><path d="M26.493,17.362c-0.203,-0.352 -0.189,-0.805 -0.004,-1.223c0.049,-0.113 0.113,-0.22 0.193,-0.312c0.239,-0.272 0.583,-0.36 0.896,-0.237c0.076,0.027 0.148,0.068 0.212,0.112c0.284,0.203 0.472,0.556 0.505,0.908c0.017,0.185 -0.005,0.392 -0.099,0.589c-0.096,0.201 -0.256,0.369 -0.468,0.485c-0.064,0.036 -0.132,0.065 -0.203,0.087c-0.428,0.132 -0.83,-0.057 -1.032,-0.409z" fill="#010101" fill-rule="evenodd"></path><path d="M30.321,16.894c-0.084,-0.051 -0.148,-0.113 -0.195,-0.168c-0.143,-0.165 -0.245,-0.392 -0.3,-0.608c-0.053,-0.215 -0.081,-0.503 0.017,-0.773c0.039,-0.105 0.097,-0.213 0.185,-0.309c0.108,-0.117 0.244,-0.201 0.397,-0.251c0.107,-0.033 0.217,-0.048 0.328,-0.049c0.165,-0.003 0.321,0.043 0.453,0.131c0.128,0.084 0.219,0.196 0.281,0.307c0.137,0.245 0.167,0.54 0.137,0.792c-0.031,0.252 -0.133,0.548 -0.359,0.763c-0.148,0.141 -0.344,0.24 -0.579,0.257c-0.155,0.011 -0.283,-0.043 -0.365,-0.092z" fill="#010101" fill-rule="evenodd"></path><path d="M5.588,26.993c-0.089,-0.261 0.051,-0.547 0.311,-0.635c1.211,-0.413 3.309,-1.129 4.513,-1.583c0.259,-0.097 0.547,0.033 0.644,0.291c0.097,0.259 -0.033,0.547 -0.291,0.644c-1.224,0.461 -3.343,1.184 -4.543,1.593c-0.26,0.09 -0.546,-0.05 -0.634,-0.31z" fill="#010101" fill-rule="evenodd"></path><path d="M9.357,38.981c-0.1,-0.257 0.027,-0.548 0.284,-0.648c1.816,-0.709 3.676,-1.344 5.44,-1.868c0.264,-0.079 0.543,0.072 0.621,0.337c0.079,0.264 -0.072,0.543 -0.337,0.621c-1.737,0.516 -3.571,1.143 -5.36,1.841c-0.258,0.101 -0.549,-0.026 -0.648,-0.283z" fill="#010101" fill-rule="evenodd"></path><path d="M10.179,34.753c-0.369,-0.663 -0.851,-1.802 -0.959,-2.586c-0.037,-0.261 0.135,-0.499 0.381,-0.555l0.08,-0.011c0.02,-0.004 0.096,-0.019 0.245,-0.055c0.129,-0.031 0.285,-0.069 0.447,-0.109c0.16,-0.039 0.324,-0.079 0.464,-0.112c0.125,-0.028 0.267,-0.06 0.365,-0.069l0.096,-0.005l0.088,0.009c0.031,0.005 0.107,0.021 0.188,0.073c0.079,0.052 0.141,0.123 0.184,0.216c0.031,0.067 0.253,0.591 0.473,1.115c0.112,0.264 0.224,0.531 0.312,0.745c0.083,0.2 0.156,0.377 0.18,0.443l0.017,0.06c0.083,0.327 -0.177,0.64 -0.515,0.62c-0.219,-0.013 -0.332,0.039 -0.536,0.147c-0.22,0.116 -0.535,0.297 -1.044,0.329c-0.19,0.013 -0.373,-0.087 -0.466,-0.255zM11.223,33.795c0.092,-0.048 0.193,-0.101 0.325,-0.16c-0.071,-0.185 -0.155,-0.385 -0.237,-0.583c-0.112,-0.267 -0.223,-0.527 -0.309,-0.731l-0.043,0.004c-0.108,0.025 -0.225,0.055 -0.345,0.083c-0.079,0.02 -0.159,0.04 -0.237,0.06l-0.065,0.016l0.015,0.053c0.056,0.189 0.127,0.396 0.209,0.607c0.08,0.209 0.168,0.415 0.256,0.607l0.112,0.196c0.11,-0.04 0.203,-0.09 0.319,-0.152zM11.263,31.818l0.041,-0.064l-0.047,0.023z" fill="#010101" fill-rule="evenodd"></path><path d="M8.096,34.241c-0.143,-0.236 -0.069,-0.544 0.167,-0.688c0.117,-0.071 0.255,-0.12 0.36,-0.155c0.112,-0.037 0.24,-0.072 0.347,-0.103c0.115,-0.033 0.213,-0.063 0.296,-0.093c0.067,-0.024 0.105,-0.043 0.131,-0.06c0.179,-0.191 0.468,-0.219 0.675,-0.063c0.219,0.167 0.261,0.481 0.095,0.701c-0.056,0.072 -0.119,0.127 -0.175,0.168c-0.123,0.089 -0.267,0.151 -0.38,0.192c-0.121,0.045 -0.252,0.083 -0.365,0.116c-0.121,0.035 -0.223,0.063 -0.312,0.092c-0.097,0.031 -0.139,0.052 -0.149,0.059c-0.238,0.143 -0.546,0.07 -0.69,-0.166z" fill="#010101" fill-rule="evenodd"></path><path d="M11.378,33.127c-0.143,-0.236 -0.068,-0.544 0.168,-0.687l0.091,-0.045c0.052,-0.023 0.116,-0.044 0.177,-0.064c0.067,-0.021 0.144,-0.045 0.227,-0.071c0.168,-0.049 0.368,-0.107 0.563,-0.16c0.193,-0.053 0.384,-0.105 0.533,-0.144c0.14,-0.037 0.259,-0.069 0.396,-0.091l0.085,0.001c0.273,0.035 0.468,0.285 0.435,0.559c-0.027,0.205 -0.175,0.367 -0.389,0.427l-0.087,0.021c-0.047,0.012 -0.109,0.029 -0.183,0.048c-0.147,0.04 -0.333,0.089 -0.525,0.143c-0.191,0.053 -0.384,0.108 -0.543,0.155c-0.079,0.024 -0.148,0.045 -0.203,0.063c-0.045,0.016 -0.073,0.025 -0.079,0.024c-0.216,0.132 -0.523,0.057 -0.666,-0.179z" fill="#010101" fill-rule="evenodd"></path><path d="M17.437,35.357c-0.084,-0.263 0.063,-0.544 0.325,-0.628c2.793,-0.888 5.64,-1.912 8.501,-3.063c2.019,-0.813 4.405,-1.096 6.333,-1.671c0.223,-0.067 1.257,-0.423 2.299,-0.792c0.517,-0.184 1.029,-0.368 1.435,-0.519c0.435,-0.16 0.696,-0.264 0.768,-0.301c0.189,-0.097 0.405,-0.079 0.564,0.055c0.211,0.179 0.236,0.493 0.057,0.704c-0.056,0.067 -0.119,0.104 -0.125,0.108l-0.057,0.032c-0.129,0.067 -0.465,0.195 -0.859,0.341c-0.412,0.152 -0.929,0.339 -1.448,0.523c-1.031,0.365 -2.095,0.732 -2.349,0.808c-2.004,0.597 -4.323,0.865 -6.243,1.639c-2.885,1.161 -5.756,2.193 -8.573,3.089c-0.263,0.084 -0.544,-0.063 -0.628,-0.325z" fill="#010101" fill-rule="evenodd"></path><path d="M16.489,32.026c-0.033,-0.273 0.16,-0.524 0.435,-0.559c0.685,-0.085 1.465,-0.305 2.268,-0.576c0.804,-0.272 1.592,-0.584 2.319,-0.853c0.444,-0.164 1.441,-0.411 2.417,-0.633c0.988,-0.224 2.007,-0.433 2.508,-0.516c1.317,-0.217 2.957,-0.86 4.679,-1.505c1.669,-0.625 3.449,-1.265 4.928,-1.379c0.275,-0.021 0.516,0.184 0.536,0.46c0.021,0.275 -0.184,0.516 -0.46,0.536c-1.307,0.101 -2.94,0.677 -4.653,1.32c-1.633,0.612 -3.423,1.316 -4.865,1.553c-0.473,0.079 -1.467,0.283 -2.449,0.507c-0.999,0.227 -1.928,0.46 -2.292,0.595c-0.7,0.26 -1.525,0.584 -2.347,0.863c-0.822,0.279 -1.677,0.523 -2.464,0.623c-0.275,0.032 -0.526,-0.161 -0.56,-0.436z" fill="#010101" fill-rule="evenodd"></path><path d="M15.825,28.449c-0.015,-0.276 0.197,-0.511 0.473,-0.525c2.811,-0.147 7.52,-1.861 10.54,-2.76c2.3,-0.684 6.289,-2.224 8.548,-2.369c0.276,-0.017 0.513,0.192 0.532,0.467c0.017,0.276 -0.192,0.513 -0.467,0.532c-1.019,0.065 -2.507,0.464 -4.064,0.951c-1.531,0.479 -3.119,1.039 -4.265,1.379c-3,0.893 -7.795,2.644 -10.772,2.8c-0.276,0.013 -0.511,-0.199 -0.525,-0.475z" fill="#010101" fill-rule="evenodd"></path><path d="M10.937,26.062c-0.088,-0.261 0.053,-0.545 0.316,-0.632c0.311,-0.104 0.735,-0.233 1.144,-0.372c0.203,-0.069 0.396,-0.137 0.567,-0.204c0.173,-0.068 0.309,-0.129 0.403,-0.181c0.241,-0.133 0.545,-0.045 0.68,0.196c0.133,0.241 0.045,0.545 -0.196,0.68c-0.291,0.16 -0.732,0.321 -1.133,0.456c-0.416,0.141 -0.849,0.273 -1.148,0.373c-0.263,0.088 -0.547,-0.053 -0.633,-0.316z" fill="#010101" fill-rule="evenodd"></path><path d="M11.877,27.819c-0.063,-0.269 0.105,-0.539 0.373,-0.601c0.072,-0.016 0.217,-0.06 0.425,-0.129c0.197,-0.065 0.428,-0.144 0.656,-0.224c0.227,-0.079 0.452,-0.157 0.635,-0.22c0.091,-0.032 0.173,-0.06 0.243,-0.081c0.061,-0.021 0.127,-0.041 0.176,-0.055l0.045,-0.009c0.012,-0.003 0.049,-0.009 0.096,-0.009c0.276,-0.004 0.504,0.216 0.507,0.492c0.003,0.243 -0.165,0.447 -0.409,0.5c-0.023,0.007 -0.053,0.015 -0.104,0.031c-0.061,0.02 -0.139,0.047 -0.228,0.077c-0.18,0.061 -0.401,0.14 -0.632,0.22c-0.228,0.079 -0.465,0.16 -0.669,0.228c-0.197,0.065 -0.387,0.125 -0.512,0.155c-0.27,0.061 -0.54,-0.107 -0.602,-0.375z" fill="#010101" fill-rule="evenodd"></path><path d="M14.309,33.861c-0.051,-0.272 0.128,-0.533 0.399,-0.584c0.049,-0.009 0.157,-0.036 0.315,-0.077c0.151,-0.04 0.328,-0.091 0.504,-0.143c0.176,-0.052 0.349,-0.104 0.491,-0.151c0.071,-0.023 0.132,-0.044 0.18,-0.061l0.084,-0.032c0.251,-0.117 0.548,-0.009 0.665,0.24c0.117,0.251 0.009,0.548 -0.243,0.667c-0.1,0.047 -0.264,0.101 -0.377,0.137c-0.153,0.051 -0.336,0.107 -0.517,0.16c-0.184,0.053 -0.368,0.105 -0.528,0.148c-0.152,0.041 -0.296,0.077 -0.388,0.095c-0.273,0.05 -0.535,-0.129 -0.585,-0.399z" fill="#010101" fill-rule="evenodd"></path><path d="M15.106,36.105c-0.063,-0.269 0.105,-0.539 0.373,-0.601c0.027,-0.005 0.115,-0.028 0.296,-0.077c0.151,-0.041 0.339,-0.093 0.528,-0.145c0.188,-0.052 0.375,-0.105 0.524,-0.148c0.076,-0.021 0.14,-0.04 0.191,-0.055l0.093,-0.029c0.181,-0.063 0.375,-0.028 0.515,0.1c0.203,0.187 0.215,0.504 0.028,0.707c-0.045,0.049 -0.091,0.077 -0.101,0.084l-0.079,0.041l-0.04,0.015c-0.032,0.011 -0.081,0.025 -0.132,0.041c-0.055,0.016 -0.123,0.035 -0.199,0.057c-0.153,0.044 -0.343,0.097 -0.532,0.149c-0.191,0.053 -0.38,0.105 -0.535,0.148c-0.148,0.04 -0.275,0.073 -0.329,0.087c-0.269,0.062 -0.538,-0.106 -0.601,-0.374z" fill="#010101" fill-rule="evenodd"></path><path d="M13.179,47.442c-0.219,-0.168 -0.26,-0.483 -0.092,-0.701c0.043,-0.055 0.099,-0.168 0.152,-0.361c0.051,-0.185 0.089,-0.409 0.12,-0.657c0.029,-0.247 0.048,-0.507 0.063,-0.761c0.013,-0.255 0.021,-0.497 0.031,-0.716c0.011,-0.276 0.243,-0.491 0.519,-0.48c0.276,0.011 0.491,0.243 0.48,0.519c-0.016,0.412 -0.033,1.011 -0.1,1.559c-0.032,0.275 -0.079,0.552 -0.148,0.803c-0.067,0.243 -0.165,0.5 -0.323,0.705c-0.168,0.217 -0.483,0.258 -0.702,0.09z" fill="#010101" fill-rule="evenodd"></path><path d="M19.471,47.158c-0.941,-0.471 -1.495,-1.073 -1.929,-1.72c-0.413,-0.617 -0.709,-1.256 -1.161,-1.891c-0.16,-0.225 -0.108,-0.537 0.117,-0.697c0.225,-0.16 0.537,-0.108 0.697,0.117c0.484,0.68 0.799,1.351 1.177,1.915c0.363,0.539 0.793,1.005 1.545,1.381c0.247,0.124 0.347,0.424 0.224,0.671c-0.123,0.247 -0.423,0.347 -0.67,0.224z" fill="#010101" fill-rule="evenodd"></path><path d="M16.067,47.533c-0.089,-0.245 -0.176,-0.515 -0.259,-0.789c-0.084,-0.273 -0.168,-0.563 -0.251,-0.845c-0.171,-0.576 -0.341,-1.129 -0.533,-1.595c-0.105,-0.255 0.016,-0.548 0.271,-0.653c0.255,-0.105 0.548,0.016 0.653,0.271c0.216,0.521 0.399,1.123 0.568,1.693c0.085,0.291 0.167,0.569 0.248,0.839c0.081,0.268 0.161,0.516 0.243,0.737c0.095,0.259 -0.039,0.547 -0.299,0.641c-0.258,0.094 -0.546,-0.039 -0.641,-0.299z" fill="#010101" fill-rule="evenodd"></path><path d="M10.493,20.635c-0.668,-0.823 -1.315,-1.831 -1.683,-2.593c-0.161,-0.331 -0.296,-0.669 -0.329,-0.944c-0.205,-1.683 0.323,-3.616 0.897,-4.956c0.895,-2.087 2.691,-2.22 3.557,-3.211c1.839,-2.101 9.327,-7.579 13.125,-4.665c1.028,0.789 1.312,1.407 1.952,2.285c1.603,2.204 0.629,3.576 -1.011,4.339c-1.445,0.672 -3.625,0.971 -4.588,1.236c-0.891,0.244 -2.184,1.191 -2.883,1.917c-1.608,1.668 -2.556,2.86 -3.976,4.632c-0.479,0.6 -0.643,1.805 -1.187,2.695c-0.407,0.667 -0.969,0.703 -1.441,0.845c-0.101,0.031 -0.201,0.041 -0.297,0.039c-0.724,-0.025 -1.535,-0.879 -2.136,-1.619zM13.517,20.849c0.388,-0.636 0.661,-2.051 1.259,-2.799c1.42,-1.772 2.392,-2.996 4.035,-4.701c0.755,-0.783 2.2,-1.873 3.339,-2.187c1.212,-0.333 3.069,-0.545 4.431,-1.179c1.171,-0.544 1.781,-1.255 0.624,-2.844c-0.715,-0.983 -0.873,-1.405 -1.752,-2.08c-2.992,-2.295 -9.829,2.321 -11.763,4.532c-1.151,1.311 -2.635,1.18 -3.392,2.944c-0.543,1.265 -0.999,3.009 -0.823,4.441c0.012,0.099 0.08,0.309 0.236,0.629c0.331,0.685 0.932,1.627 1.559,2.399c0.529,0.652 0.961,1.027 1.211,1.175l0.181,0.073l0.208,-0.061c0.475,-0.134 0.509,-0.12 0.647,-0.342z" fill="#010101" fill-rule="evenodd"></path></g></g><g fill="none" fill-rule="nonzero" stroke="none" stroke-width="1" stroke-linecap="butt" stroke-linejoin="miter" stroke-miterlimit="10" stroke-dasharray="" stroke-dashoffset="0" font-family="none" font-weight="none" font-size="none" text-anchor="none" style="mix-blend-mode: normal"><g transform="translate(130.67234,146.66839) scale(0.13263,0.13263)" id="overlay"><path d="M93.371,5.797c-17.265,2.014 -34.214,7.8 -47.565,16.821c-16.528,11.169 -29.793,27.967 -36.346,47.382c-4.113,12.184 -5.583,25.398 -3.558,38.899c0.332,2.215 0.753,4.415 1.254,6.593c2.85,12.397 8.25,26.16 15.508,38.509c7.916,13.469 16.896,23.496 28.336,29.999c0.615,0.35 2.379,2.452 3,2.782c29.395,15.652 65.039,9.971 93.069,-6.54c0.689,-0.406 1.378,-0.82 2.067,-1.242c11.765,-7.213 23.241,-16.747 30.822,-28.94c1.063,-1.71 2.078,-3.464 3.044,-5.257c13.454,-24.985 17.273,-57.556 7.623,-84.97c-4.63,-13.147 -11.68,-22.186 -21.625,-30.833c-0.784,-0.682 -2.591,-3.348 -3.398,-4c-3.057,-2.47 -6.272,-4.725 -9.602,-6.757c-4.839,-2.952 -9.923,-5.434 -15.125,-7.421c-14.213,-5.431 -31.003,-6.95 -47.504,-5.025z" fill="#d6e5e5"></path><path d="M92.375,201.043c-14.456,0.001 -28.353,-3.26 -40.725,-9.848c-0.954,-0.507 -1.674,-1.222 -2.771,-2.346c-0.209,-0.215 -0.5,-0.514 -0.692,-0.698c-11.604,-6.686 -21.093,-16.744 -29.834,-31.618c-7.3,-12.421 -13.007,-26.599 -16.071,-39.922c-0.535,-2.328 -0.981,-4.674 -1.325,-6.972c-2.073,-13.821 -0.806,-27.695 3.765,-41.238c6.784,-20.098 20.38,-37.828 38.284,-49.926c13.653,-9.225 31.333,-15.492 49.785,-17.644v-0.001c18.014,-2.099 35.26,-0.261 49.868,5.32c5.54,2.117 10.904,4.749 15.944,7.823c3.545,2.164 6.958,4.564 10.141,7.138c0.808,0.652 1.517,1.533 2.588,2.906c0.329,0.422 0.817,1.048 1.033,1.283c11.524,10.038 18.397,19.875 22.973,32.872c9.75,27.698 6.709,61.802 -7.937,89.001c-1.008,1.872 -2.084,3.731 -3.199,5.525c-7.111,11.438 -18.031,21.721 -32.456,30.563c-0.713,0.438 -1.427,0.866 -2.142,1.287c-18.579,10.948 -38.378,16.494 -57.229,16.495zM56.738,182.574c25.356,13.298 58.138,10.829 87.793,-6.641c0.664,-0.391 1.328,-0.79 1.99,-1.196c13.087,-8.022 22.908,-17.214 29.189,-27.316c1.005,-1.618 1.977,-3.297 2.887,-4.987c13.353,-24.8 16.153,-55.814 7.309,-80.94c-3.972,-11.281 -10.009,-19.871 -20.188,-28.72c-0.74,-0.644 -1.449,-1.552 -2.269,-2.604c-0.33,-0.423 -0.867,-1.11 -1.113,-1.38c-2.808,-2.261 -5.815,-4.372 -8.941,-6.279c-4.52,-2.758 -9.333,-5.119 -14.305,-7.019c-12.922,-4.937 -28.952,-6.616 -45.141,-4.729v0c-16.891,1.971 -32.995,7.652 -45.345,15.997c-16.1,10.881 -28.319,26.804 -34.407,44.84c-4.058,12.022 -5.185,24.322 -3.35,36.558c0.307,2.045 0.704,4.136 1.182,6.214c2.841,12.355 8.149,25.53 14.946,37.096c7.903,13.446 16.322,22.402 26.497,28.187c0.872,0.495 1.543,1.164 2.567,2.214c0.198,0.201 0.495,0.507 0.699,0.705zM48.491,188.325c0.013,0.008 0.025,0.015 0.037,0.021c-0.012,-0.006 -0.025,-0.014 -0.037,-0.021zM172.281,25.228c0.005,0.004 0.01,0.009 0.015,0.013c-0.004,-0.005 -0.01,-0.01 -0.015,-0.013z" fill="#000000"></path><path d="M107,164c-2.746,0 -4.981,-2.217 -5,-4.967c-0.226,-33.915 -1.634,-65.492 -4.289,-95.909c-5.318,11.354 -11.61,21.95 -17.446,31.486c-1.441,2.354 -4.519,3.098 -6.875,1.654c-2.355,-1.441 -3.096,-4.52 -1.654,-6.875c8.776,-14.339 18.606,-31.124 24.169,-48.885c0.708,-2.26 2.908,-3.721 5.261,-3.48c2.357,0.231 4.228,2.086 4.481,4.44c3.996,37.099 6.073,75.534 6.353,117.502c0.018,2.762 -2.206,5.015 -4.967,5.033c-0.011,0.001 -0.022,0.001 -0.033,0.001z" fill="#000000"></path></g></g></g></svg>